<mxfile host="app.diagrams.net" agent="Mozilla/5.0 (Windows NT 10.0; Win64; x64) AppleWebKit/537.36 (KHTML, like Gecko) Chrome/140.0.0.0 Safari/537.36" version="28.2.5">
  <diagram id="C5RBs43oDa-KdzZeNtuy" name="Page-1">
    <mxGraphModel dx="2564" dy="2106" grid="1" gridSize="10" guides="1" tooltips="1" connect="1" arrows="1" fold="1" page="1" pageScale="1" pageWidth="827" pageHeight="1169" math="0" shadow="0">
      <root>
        <mxCell id="WIyWlLk6GJQsqaUBKTNV-0" />
        <mxCell id="WIyWlLk6GJQsqaUBKTNV-1" parent="WIyWlLk6GJQsqaUBKTNV-0" />
        <mxCell id="aGdu7o1ka7Lb1KKvzhYT-4" value="User" style="swimlane;fontStyle=0;childLayout=stackLayout;horizontal=1;startSize=26;fillColor=none;horizontalStack=0;resizeParent=1;resizeParentMax=0;resizeLast=0;collapsible=1;marginBottom=0;whiteSpace=wrap;html=1;" vertex="1" parent="WIyWlLk6GJQsqaUBKTNV-1">
          <mxGeometry x="414" y="112" width="240" height="156" as="geometry" />
        </mxCell>
        <mxCell id="aGdu7o1ka7Lb1KKvzhYT-5" value="+ loginName: varchar" style="text;strokeColor=none;fillColor=none;align=left;verticalAlign=top;spacingLeft=4;spacingRight=4;overflow=hidden;rotatable=0;points=[[0,0.5],[1,0.5]];portConstraint=eastwest;whiteSpace=wrap;html=1;" vertex="1" parent="aGdu7o1ka7Lb1KKvzhYT-4">
          <mxGeometry y="26" width="240" height="26" as="geometry" />
        </mxCell>
        <mxCell id="aGdu7o1ka7Lb1KKvzhYT-6" value="+ password: varchar" style="text;strokeColor=none;fillColor=none;align=left;verticalAlign=top;spacingLeft=4;spacingRight=4;overflow=hidden;rotatable=0;points=[[0,0.5],[1,0.5]];portConstraint=eastwest;whiteSpace=wrap;html=1;" vertex="1" parent="aGdu7o1ka7Lb1KKvzhYT-4">
          <mxGeometry y="52" width="240" height="26" as="geometry" />
        </mxCell>
        <mxCell id="aGdu7o1ka7Lb1KKvzhYT-7" value="+ name: varchar" style="text;strokeColor=none;fillColor=none;align=left;verticalAlign=top;spacingLeft=4;spacingRight=4;overflow=hidden;rotatable=0;points=[[0,0.5],[1,0.5]];portConstraint=eastwest;whiteSpace=wrap;html=1;" vertex="1" parent="aGdu7o1ka7Lb1KKvzhYT-4">
          <mxGeometry y="78" width="240" height="26" as="geometry" />
        </mxCell>
        <mxCell id="aGdu7o1ka7Lb1KKvzhYT-11" value="+ dayBirth: date" style="text;strokeColor=none;fillColor=none;align=left;verticalAlign=top;spacingLeft=4;spacingRight=4;overflow=hidden;rotatable=0;points=[[0,0.5],[1,0.5]];portConstraint=eastwest;whiteSpace=wrap;html=1;" vertex="1" parent="aGdu7o1ka7Lb1KKvzhYT-4">
          <mxGeometry y="104" width="240" height="26" as="geometry" />
        </mxCell>
        <mxCell id="aGdu7o1ka7Lb1KKvzhYT-12" value="+ phoneNumber: String" style="text;strokeColor=none;fillColor=none;align=left;verticalAlign=top;spacingLeft=4;spacingRight=4;overflow=hidden;rotatable=0;points=[[0,0.5],[1,0.5]];portConstraint=eastwest;whiteSpace=wrap;html=1;" vertex="1" parent="aGdu7o1ka7Lb1KKvzhYT-4">
          <mxGeometry y="130" width="240" height="26" as="geometry" />
        </mxCell>
        <mxCell id="aGdu7o1ka7Lb1KKvzhYT-13" value="Post" style="swimlane;fontStyle=0;childLayout=stackLayout;horizontal=1;startSize=26;fillColor=none;horizontalStack=0;resizeParent=1;resizeParentMax=0;resizeLast=0;collapsible=1;marginBottom=0;whiteSpace=wrap;html=1;" vertex="1" parent="WIyWlLk6GJQsqaUBKTNV-1">
          <mxGeometry x="1080" y="130" width="240" height="78" as="geometry" />
        </mxCell>
        <mxCell id="aGdu7o1ka7Lb1KKvzhYT-14" value="+ status: varchar" style="text;strokeColor=none;fillColor=none;align=left;verticalAlign=top;spacingLeft=4;spacingRight=4;overflow=hidden;rotatable=0;points=[[0,0.5],[1,0.5]];portConstraint=eastwest;whiteSpace=wrap;html=1;" vertex="1" parent="aGdu7o1ka7Lb1KKvzhYT-13">
          <mxGeometry y="26" width="240" height="26" as="geometry" />
        </mxCell>
        <mxCell id="aGdu7o1ka7Lb1KKvzhYT-15" value="+ List&amp;lt;imgs&amp;gt;" style="text;strokeColor=none;fillColor=none;align=left;verticalAlign=top;spacingLeft=4;spacingRight=4;overflow=hidden;rotatable=0;points=[[0,0.5],[1,0.5]];portConstraint=eastwest;whiteSpace=wrap;html=1;" vertex="1" parent="aGdu7o1ka7Lb1KKvzhYT-13">
          <mxGeometry y="52" width="240" height="26" as="geometry" />
        </mxCell>
        <mxCell id="aGdu7o1ka7Lb1KKvzhYT-19" value="Category" style="swimlane;fontStyle=0;childLayout=stackLayout;horizontal=1;startSize=26;fillColor=none;horizontalStack=0;resizeParent=1;resizeParentMax=0;resizeLast=0;collapsible=1;marginBottom=0;whiteSpace=wrap;html=1;" vertex="1" parent="WIyWlLk6GJQsqaUBKTNV-1">
          <mxGeometry x="1090" width="240" height="52" as="geometry" />
        </mxCell>
        <mxCell id="aGdu7o1ka7Lb1KKvzhYT-20" value="+ name: String" style="text;strokeColor=none;fillColor=none;align=left;verticalAlign=top;spacingLeft=4;spacingRight=4;overflow=hidden;rotatable=0;points=[[0,0.5],[1,0.5]];portConstraint=eastwest;whiteSpace=wrap;html=1;" vertex="1" parent="aGdu7o1ka7Lb1KKvzhYT-19">
          <mxGeometry y="26" width="240" height="26" as="geometry" />
        </mxCell>
        <mxCell id="aGdu7o1ka7Lb1KKvzhYT-25" value="" style="endArrow=ERone;html=1;rounded=0;entryX=0.506;entryY=1.087;entryDx=0;entryDy=0;entryPerimeter=0;exitX=0.528;exitY=0.002;exitDx=0;exitDy=0;exitPerimeter=0;endFill=0;startArrow=ERoneToMany;startFill=0;" edge="1" parent="WIyWlLk6GJQsqaUBKTNV-1" source="aGdu7o1ka7Lb1KKvzhYT-13" target="aGdu7o1ka7Lb1KKvzhYT-20">
          <mxGeometry width="50" height="50" relative="1" as="geometry">
            <mxPoint x="770" y="120" as="sourcePoint" />
            <mxPoint x="820" y="70" as="targetPoint" />
          </mxGeometry>
        </mxCell>
        <mxCell id="aGdu7o1ka7Lb1KKvzhYT-26" value="" style="endArrow=ERone;html=1;rounded=0;entryX=1;entryY=0.5;entryDx=0;entryDy=0;exitX=0;exitY=0.25;exitDx=0;exitDy=0;endFill=0;startArrow=ERoneToMany;startFill=0;" edge="1" parent="WIyWlLk6GJQsqaUBKTNV-1" source="aGdu7o1ka7Lb1KKvzhYT-13" target="aGdu7o1ka7Lb1KKvzhYT-5">
          <mxGeometry width="50" height="50" relative="1" as="geometry">
            <mxPoint x="736.6399999999999" y="334.63" as="sourcePoint" />
            <mxPoint x="880" y="180" as="targetPoint" />
          </mxGeometry>
        </mxCell>
        <mxCell id="aGdu7o1ka7Lb1KKvzhYT-27" value="Like" style="swimlane;fontStyle=0;childLayout=stackLayout;horizontal=1;startSize=26;fillColor=none;horizontalStack=0;resizeParent=1;resizeParentMax=0;resizeLast=0;collapsible=1;marginBottom=0;whiteSpace=wrap;html=1;" vertex="1" parent="WIyWlLk6GJQsqaUBKTNV-1">
          <mxGeometry x="760" y="216" width="240" height="52" as="geometry" />
        </mxCell>
        <mxCell id="aGdu7o1ka7Lb1KKvzhYT-30" value="" style="endArrow=ERone;html=1;rounded=0;entryX=-0.01;entryY=0.702;entryDx=0;entryDy=0;exitX=1;exitY=0;exitDx=0;exitDy=0;endFill=0;startArrow=ERoneToMany;startFill=0;entryPerimeter=0;" edge="1" parent="WIyWlLk6GJQsqaUBKTNV-1" source="aGdu7o1ka7Lb1KKvzhYT-27" target="aGdu7o1ka7Lb1KKvzhYT-14">
          <mxGeometry width="50" height="50" relative="1" as="geometry">
            <mxPoint x="840" y="326" as="sourcePoint" />
            <mxPoint x="700" y="300" as="targetPoint" />
          </mxGeometry>
        </mxCell>
        <mxCell id="aGdu7o1ka7Lb1KKvzhYT-31" value="" style="endArrow=ERone;html=1;rounded=0;entryX=1;entryY=0.5;entryDx=0;entryDy=0;exitX=0;exitY=0;exitDx=0;exitDy=0;endFill=0;startArrow=ERoneToMany;startFill=0;" edge="1" parent="WIyWlLk6GJQsqaUBKTNV-1" source="aGdu7o1ka7Lb1KKvzhYT-27" target="aGdu7o1ka7Lb1KKvzhYT-6">
          <mxGeometry width="50" height="50" relative="1" as="geometry">
            <mxPoint x="880" y="430" as="sourcePoint" />
            <mxPoint x="840" y="619" as="targetPoint" />
          </mxGeometry>
        </mxCell>
        <mxCell id="aGdu7o1ka7Lb1KKvzhYT-32" value="comment" style="swimlane;fontStyle=0;childLayout=stackLayout;horizontal=1;startSize=26;fillColor=none;horizontalStack=0;resizeParent=1;resizeParentMax=0;resizeLast=0;collapsible=1;marginBottom=0;whiteSpace=wrap;html=1;" vertex="1" parent="WIyWlLk6GJQsqaUBKTNV-1">
          <mxGeometry x="760" y="300" width="240" height="52" as="geometry" />
        </mxCell>
        <mxCell id="aGdu7o1ka7Lb1KKvzhYT-33" value="+ comment: String" style="text;strokeColor=none;fillColor=none;align=left;verticalAlign=top;spacingLeft=4;spacingRight=4;overflow=hidden;rotatable=0;points=[[0,0.5],[1,0.5]];portConstraint=eastwest;whiteSpace=wrap;html=1;" vertex="1" parent="aGdu7o1ka7Lb1KKvzhYT-32">
          <mxGeometry y="26" width="240" height="26" as="geometry" />
        </mxCell>
        <mxCell id="aGdu7o1ka7Lb1KKvzhYT-34" value="" style="endArrow=ERone;html=1;rounded=0;entryX=-0.008;entryY=0.824;entryDx=0;entryDy=0;exitX=1;exitY=0.5;exitDx=0;exitDy=0;endFill=0;startArrow=ERoneToMany;startFill=0;entryPerimeter=0;" edge="1" parent="WIyWlLk6GJQsqaUBKTNV-1" source="aGdu7o1ka7Lb1KKvzhYT-32" target="aGdu7o1ka7Lb1KKvzhYT-15">
          <mxGeometry width="50" height="50" relative="1" as="geometry">
            <mxPoint x="880" y="420" as="sourcePoint" />
            <mxPoint x="860" y="609" as="targetPoint" />
          </mxGeometry>
        </mxCell>
        <mxCell id="aGdu7o1ka7Lb1KKvzhYT-35" value="" style="endArrow=ERone;html=1;rounded=0;exitX=0;exitY=0.5;exitDx=0;exitDy=0;endFill=0;startArrow=ERoneToMany;startFill=0;entryX=1;entryY=0.5;entryDx=0;entryDy=0;" edge="1" parent="WIyWlLk6GJQsqaUBKTNV-1" source="aGdu7o1ka7Lb1KKvzhYT-33" target="aGdu7o1ka7Lb1KKvzhYT-11">
          <mxGeometry width="50" height="50" relative="1" as="geometry">
            <mxPoint x="830" y="948" as="sourcePoint" />
            <mxPoint x="440" y="450" as="targetPoint" />
          </mxGeometry>
        </mxCell>
        <mxCell id="aGdu7o1ka7Lb1KKvzhYT-36" value="share" style="swimlane;fontStyle=0;childLayout=stackLayout;horizontal=1;startSize=26;fillColor=none;horizontalStack=0;resizeParent=1;resizeParentMax=0;resizeLast=0;collapsible=1;marginBottom=0;whiteSpace=wrap;html=1;" vertex="1" parent="WIyWlLk6GJQsqaUBKTNV-1">
          <mxGeometry x="760" y="390" width="240" height="52" as="geometry" />
        </mxCell>
        <mxCell id="aGdu7o1ka7Lb1KKvzhYT-38" value="" style="endArrow=ERone;html=1;rounded=0;exitX=-0.003;exitY=0.379;exitDx=0;exitDy=0;endFill=0;startArrow=ERoneToMany;startFill=0;entryX=0.925;entryY=1.075;entryDx=0;entryDy=0;entryPerimeter=0;exitPerimeter=0;" edge="1" parent="WIyWlLk6GJQsqaUBKTNV-1" source="aGdu7o1ka7Lb1KKvzhYT-36" target="aGdu7o1ka7Lb1KKvzhYT-12">
          <mxGeometry width="50" height="50" relative="1" as="geometry">
            <mxPoint x="618" y="829" as="sourcePoint" />
            <mxPoint x="470" y="590" as="targetPoint" />
          </mxGeometry>
        </mxCell>
        <mxCell id="aGdu7o1ka7Lb1KKvzhYT-39" value="" style="endArrow=ERone;html=1;rounded=0;entryX=0.266;entryY=1.115;entryDx=0;entryDy=0;exitX=1;exitY=0.5;exitDx=0;exitDy=0;endFill=0;startArrow=ERoneToMany;startFill=0;entryPerimeter=0;" edge="1" parent="WIyWlLk6GJQsqaUBKTNV-1" source="aGdu7o1ka7Lb1KKvzhYT-36" target="aGdu7o1ka7Lb1KKvzhYT-15">
          <mxGeometry width="50" height="50" relative="1" as="geometry">
            <mxPoint x="860" y="838" as="sourcePoint" />
            <mxPoint x="959" y="530" as="targetPoint" />
          </mxGeometry>
        </mxCell>
        <mxCell id="aGdu7o1ka7Lb1KKvzhYT-40" value="collaborate" style="swimlane;fontStyle=0;childLayout=stackLayout;horizontal=1;startSize=26;fillColor=none;horizontalStack=0;resizeParent=1;resizeParentMax=0;resizeLast=0;collapsible=1;marginBottom=0;whiteSpace=wrap;html=1;" vertex="1" parent="WIyWlLk6GJQsqaUBKTNV-1">
          <mxGeometry x="760" y="490" width="240" height="52" as="geometry" />
        </mxCell>
        <mxCell id="aGdu7o1ka7Lb1KKvzhYT-42" value="" style="endArrow=ERone;html=1;rounded=0;exitX=0;exitY=0.5;exitDx=0;exitDy=0;endFill=0;startArrow=ERoneToMany;startFill=0;entryX=0.788;entryY=1.043;entryDx=0;entryDy=0;entryPerimeter=0;" edge="1" parent="WIyWlLk6GJQsqaUBKTNV-1" source="aGdu7o1ka7Lb1KKvzhYT-40" target="aGdu7o1ka7Lb1KKvzhYT-12">
          <mxGeometry width="50" height="50" relative="1" as="geometry">
            <mxPoint x="716" y="943" as="sourcePoint" />
            <mxPoint x="530" y="610" as="targetPoint" />
          </mxGeometry>
        </mxCell>
        <mxCell id="aGdu7o1ka7Lb1KKvzhYT-43" value="" style="endArrow=ERone;html=1;rounded=0;entryX=0.445;entryY=1.051;entryDx=0;entryDy=0;exitX=1;exitY=1;exitDx=0;exitDy=0;endFill=0;startArrow=ERoneToMany;startFill=0;entryPerimeter=0;" edge="1" parent="WIyWlLk6GJQsqaUBKTNV-1" source="aGdu7o1ka7Lb1KKvzhYT-40" target="aGdu7o1ka7Lb1KKvzhYT-15">
          <mxGeometry width="50" height="50" relative="1" as="geometry">
            <mxPoint x="880" y="1016" as="sourcePoint" />
            <mxPoint x="1010" y="600" as="targetPoint" />
          </mxGeometry>
        </mxCell>
        <mxCell id="aGdu7o1ka7Lb1KKvzhYT-44" value="Document" style="swimlane;fontStyle=0;childLayout=stackLayout;horizontal=1;startSize=26;fillColor=none;horizontalStack=0;resizeParent=1;resizeParentMax=0;resizeLast=0;collapsible=1;marginBottom=0;whiteSpace=wrap;html=1;" vertex="1" parent="WIyWlLk6GJQsqaUBKTNV-1">
          <mxGeometry x="414" y="-140" width="240" height="78" as="geometry" />
        </mxCell>
        <mxCell id="aGdu7o1ka7Lb1KKvzhYT-45" value="+ status: String" style="text;strokeColor=none;fillColor=none;align=left;verticalAlign=top;spacingLeft=4;spacingRight=4;overflow=hidden;rotatable=0;points=[[0,0.5],[1,0.5]];portConstraint=eastwest;whiteSpace=wrap;html=1;" vertex="1" parent="aGdu7o1ka7Lb1KKvzhYT-44">
          <mxGeometry y="26" width="240" height="26" as="geometry" />
        </mxCell>
        <mxCell id="aGdu7o1ka7Lb1KKvzhYT-46" value="+ File" style="text;strokeColor=none;fillColor=none;align=left;verticalAlign=top;spacingLeft=4;spacingRight=4;overflow=hidden;rotatable=0;points=[[0,0.5],[1,0.5]];portConstraint=eastwest;whiteSpace=wrap;html=1;" vertex="1" parent="aGdu7o1ka7Lb1KKvzhYT-44">
          <mxGeometry y="52" width="240" height="26" as="geometry" />
        </mxCell>
        <mxCell id="aGdu7o1ka7Lb1KKvzhYT-47" value="" style="endArrow=ERone;html=1;rounded=0;entryX=0.5;entryY=0;entryDx=0;entryDy=0;exitX=0.483;exitY=1.147;exitDx=0;exitDy=0;exitPerimeter=0;endFill=0;startArrow=ERoneToMany;startFill=0;" edge="1" parent="WIyWlLk6GJQsqaUBKTNV-1" source="aGdu7o1ka7Lb1KKvzhYT-46" target="aGdu7o1ka7Lb1KKvzhYT-4">
          <mxGeometry width="50" height="50" relative="1" as="geometry">
            <mxPoint x="866" y="336" as="sourcePoint" />
            <mxPoint x="850" y="200" as="targetPoint" />
          </mxGeometry>
        </mxCell>
        <mxCell id="aGdu7o1ka7Lb1KKvzhYT-48" value="Streak" style="swimlane;fontStyle=0;childLayout=stackLayout;horizontal=1;startSize=26;fillColor=none;horizontalStack=0;resizeParent=1;resizeParentMax=0;resizeLast=0;collapsible=1;marginBottom=0;whiteSpace=wrap;html=1;" vertex="1" parent="WIyWlLk6GJQsqaUBKTNV-1">
          <mxGeometry x="130" y="-127" width="240" height="52" as="geometry" />
        </mxCell>
        <mxCell id="aGdu7o1ka7Lb1KKvzhYT-68" value="+ loginDay: datetime" style="text;strokeColor=none;fillColor=none;align=left;verticalAlign=top;spacingLeft=4;spacingRight=4;overflow=hidden;rotatable=0;points=[[0,0.5],[1,0.5]];portConstraint=eastwest;whiteSpace=wrap;html=1;" vertex="1" parent="aGdu7o1ka7Lb1KKvzhYT-48">
          <mxGeometry y="26" width="240" height="26" as="geometry" />
        </mxCell>
        <mxCell id="aGdu7o1ka7Lb1KKvzhYT-54" value="" style="endArrow=ERone;html=1;rounded=0;entryX=0.003;entryY=0.123;entryDx=0;entryDy=0;exitX=0.993;exitY=-0.065;exitDx=0;exitDy=0;endFill=0;startArrow=ERoneToMany;startFill=0;entryPerimeter=0;exitPerimeter=0;" edge="1" parent="WIyWlLk6GJQsqaUBKTNV-1" source="aGdu7o1ka7Lb1KKvzhYT-68" target="aGdu7o1ka7Lb1KKvzhYT-4">
          <mxGeometry width="50" height="50" relative="1" as="geometry">
            <mxPoint x="470" y="210" as="sourcePoint" />
            <mxPoint x="474" y="288" as="targetPoint" />
          </mxGeometry>
        </mxCell>
        <mxCell id="aGdu7o1ka7Lb1KKvzhYT-55" value="Notification" style="swimlane;fontStyle=0;childLayout=stackLayout;horizontal=1;startSize=26;fillColor=none;horizontalStack=0;resizeParent=1;resizeParentMax=0;resizeLast=0;collapsible=1;marginBottom=0;whiteSpace=wrap;html=1;" vertex="1" parent="WIyWlLk6GJQsqaUBKTNV-1">
          <mxGeometry x="120" y="-30" width="240" height="52" as="geometry" />
        </mxCell>
        <mxCell id="aGdu7o1ka7Lb1KKvzhYT-56" value="" style="endArrow=ERoneToMany;html=1;rounded=0;entryX=0;entryY=0.5;entryDx=0;entryDy=0;exitX=1;exitY=0.5;exitDx=0;exitDy=0;endFill=0;startArrow=ERoneToMany;startFill=0;" edge="1" parent="WIyWlLk6GJQsqaUBKTNV-1" source="aGdu7o1ka7Lb1KKvzhYT-55" target="aGdu7o1ka7Lb1KKvzhYT-5">
          <mxGeometry width="50" height="50" relative="1" as="geometry">
            <mxPoint x="290" y="290" as="sourcePoint" />
            <mxPoint x="391" y="270" as="targetPoint" />
          </mxGeometry>
        </mxCell>
        <mxCell id="aGdu7o1ka7Lb1KKvzhYT-57" value="FlashCard" style="swimlane;fontStyle=0;childLayout=stackLayout;horizontal=1;startSize=26;fillColor=none;horizontalStack=0;resizeParent=1;resizeParentMax=0;resizeLast=0;collapsible=1;marginBottom=0;whiteSpace=wrap;html=1;" vertex="1" parent="WIyWlLk6GJQsqaUBKTNV-1">
          <mxGeometry x="10" y="70" width="240" height="130" as="geometry" />
        </mxCell>
        <mxCell id="aGdu7o1ka7Lb1KKvzhYT-58" value="+ word" style="text;strokeColor=none;fillColor=none;align=left;verticalAlign=top;spacingLeft=4;spacingRight=4;overflow=hidden;rotatable=0;points=[[0,0.5],[1,0.5]];portConstraint=eastwest;whiteSpace=wrap;html=1;" vertex="1" parent="aGdu7o1ka7Lb1KKvzhYT-57">
          <mxGeometry y="26" width="240" height="26" as="geometry" />
        </mxCell>
        <mxCell id="aGdu7o1ka7Lb1KKvzhYT-59" value="+ translation" style="text;strokeColor=none;fillColor=none;align=left;verticalAlign=top;spacingLeft=4;spacingRight=4;overflow=hidden;rotatable=0;points=[[0,0.5],[1,0.5]];portConstraint=eastwest;whiteSpace=wrap;html=1;" vertex="1" parent="aGdu7o1ka7Lb1KKvzhYT-57">
          <mxGeometry y="52" width="240" height="26" as="geometry" />
        </mxCell>
        <mxCell id="aGdu7o1ka7Lb1KKvzhYT-60" value="+ img" style="text;strokeColor=none;fillColor=none;align=left;verticalAlign=top;spacingLeft=4;spacingRight=4;overflow=hidden;rotatable=0;points=[[0,0.5],[1,0.5]];portConstraint=eastwest;whiteSpace=wrap;html=1;" vertex="1" parent="aGdu7o1ka7Lb1KKvzhYT-57">
          <mxGeometry y="78" width="240" height="26" as="geometry" />
        </mxCell>
        <mxCell id="aGdu7o1ka7Lb1KKvzhYT-61" value="+ note" style="text;strokeColor=none;fillColor=none;align=left;verticalAlign=top;spacingLeft=4;spacingRight=4;overflow=hidden;rotatable=0;points=[[0,0.5],[1,0.5]];portConstraint=eastwest;whiteSpace=wrap;html=1;" vertex="1" parent="aGdu7o1ka7Lb1KKvzhYT-57">
          <mxGeometry y="104" width="240" height="26" as="geometry" />
        </mxCell>
        <mxCell id="aGdu7o1ka7Lb1KKvzhYT-62" value="" style="endArrow=ERone;html=1;rounded=0;entryX=0;entryY=0.5;entryDx=0;entryDy=0;exitX=1;exitY=0.5;exitDx=0;exitDy=0;endFill=0;startArrow=ERoneToMany;startFill=0;" edge="1" parent="WIyWlLk6GJQsqaUBKTNV-1" source="aGdu7o1ka7Lb1KKvzhYT-59" target="aGdu7o1ka7Lb1KKvzhYT-7">
          <mxGeometry width="50" height="50" relative="1" as="geometry">
            <mxPoint x="330" y="240" as="sourcePoint" />
            <mxPoint x="441" y="330" as="targetPoint" />
          </mxGeometry>
        </mxCell>
        <mxCell id="aGdu7o1ka7Lb1KKvzhYT-64" value="Category" style="swimlane;fontStyle=0;childLayout=stackLayout;horizontal=1;startSize=26;fillColor=none;horizontalStack=0;resizeParent=1;resizeParentMax=0;resizeLast=0;collapsible=1;marginBottom=0;whiteSpace=wrap;html=1;" vertex="1" parent="WIyWlLk6GJQsqaUBKTNV-1">
          <mxGeometry x="10" y="260" width="240" height="52" as="geometry" />
        </mxCell>
        <mxCell id="aGdu7o1ka7Lb1KKvzhYT-65" value="+ name: String" style="text;strokeColor=none;fillColor=none;align=left;verticalAlign=top;spacingLeft=4;spacingRight=4;overflow=hidden;rotatable=0;points=[[0,0.5],[1,0.5]];portConstraint=eastwest;whiteSpace=wrap;html=1;" vertex="1" parent="aGdu7o1ka7Lb1KKvzhYT-64">
          <mxGeometry y="26" width="240" height="26" as="geometry" />
        </mxCell>
        <mxCell id="aGdu7o1ka7Lb1KKvzhYT-66" value="" style="endArrow=ERone;html=1;rounded=0;entryX=0;entryY=0.5;entryDx=0;entryDy=0;exitX=1;exitY=0.5;exitDx=0;exitDy=0;endFill=0;startArrow=ERoneToMany;startFill=0;" edge="1" parent="WIyWlLk6GJQsqaUBKTNV-1" source="aGdu7o1ka7Lb1KKvzhYT-65" target="aGdu7o1ka7Lb1KKvzhYT-11">
          <mxGeometry width="50" height="50" relative="1" as="geometry">
            <mxPoint x="300" y="385" as="sourcePoint" />
            <mxPoint x="418" y="350" as="targetPoint" />
          </mxGeometry>
        </mxCell>
        <mxCell id="aGdu7o1ka7Lb1KKvzhYT-67" value="" style="endArrow=ERone;html=1;rounded=0;entryX=0.5;entryY=0;entryDx=0;entryDy=0;exitX=0.512;exitY=1.015;exitDx=0;exitDy=0;endFill=0;startArrow=ERoneToMany;startFill=0;exitPerimeter=0;" edge="1" parent="WIyWlLk6GJQsqaUBKTNV-1" source="aGdu7o1ka7Lb1KKvzhYT-61" target="aGdu7o1ka7Lb1KKvzhYT-64">
          <mxGeometry width="50" height="50" relative="1" as="geometry">
            <mxPoint x="380" y="587" as="sourcePoint" />
            <mxPoint x="526" y="400" as="targetPoint" />
          </mxGeometry>
        </mxCell>
        <mxCell id="aGdu7o1ka7Lb1KKvzhYT-69" value="conversation" style="swimlane;fontStyle=0;childLayout=stackLayout;horizontal=1;startSize=26;fillColor=none;horizontalStack=0;resizeParent=1;resizeParentMax=0;resizeLast=0;collapsible=1;marginBottom=0;whiteSpace=wrap;html=1;" vertex="1" parent="WIyWlLk6GJQsqaUBKTNV-1">
          <mxGeometry x="400" y="400" width="240" height="78" as="geometry" />
        </mxCell>
        <mxCell id="aGdu7o1ka7Lb1KKvzhYT-70" value="+ user1Id" style="text;strokeColor=none;fillColor=none;align=left;verticalAlign=top;spacingLeft=4;spacingRight=4;overflow=hidden;rotatable=0;points=[[0,0.5],[1,0.5]];portConstraint=eastwest;whiteSpace=wrap;html=1;" vertex="1" parent="aGdu7o1ka7Lb1KKvzhYT-69">
          <mxGeometry y="26" width="240" height="26" as="geometry" />
        </mxCell>
        <mxCell id="aGdu7o1ka7Lb1KKvzhYT-71" value="+ user2Id" style="text;strokeColor=none;fillColor=none;align=left;verticalAlign=top;spacingLeft=4;spacingRight=4;overflow=hidden;rotatable=0;points=[[0,0.5],[1,0.5]];portConstraint=eastwest;whiteSpace=wrap;html=1;" vertex="1" parent="aGdu7o1ka7Lb1KKvzhYT-69">
          <mxGeometry y="52" width="240" height="26" as="geometry" />
        </mxCell>
        <mxCell id="aGdu7o1ka7Lb1KKvzhYT-72" value="" style="endArrow=ERoneToMany;html=1;rounded=0;exitX=0.5;exitY=0;exitDx=0;exitDy=0;endFill=0;startArrow=ERoneToMany;startFill=0;" edge="1" parent="WIyWlLk6GJQsqaUBKTNV-1" source="aGdu7o1ka7Lb1KKvzhYT-69">
          <mxGeometry width="50" height="50" relative="1" as="geometry">
            <mxPoint x="340" y="330" as="sourcePoint" />
            <mxPoint x="452" y="270" as="targetPoint" />
          </mxGeometry>
        </mxCell>
        <mxCell id="aGdu7o1ka7Lb1KKvzhYT-73" value="messages" style="swimlane;fontStyle=0;childLayout=stackLayout;horizontal=1;startSize=26;fillColor=none;horizontalStack=0;resizeParent=1;resizeParentMax=0;resizeLast=0;collapsible=1;marginBottom=0;whiteSpace=wrap;html=1;" vertex="1" parent="WIyWlLk6GJQsqaUBKTNV-1">
          <mxGeometry x="80" y="400" width="240" height="156" as="geometry" />
        </mxCell>
        <mxCell id="aGdu7o1ka7Lb1KKvzhYT-74" value="+ conversationId" style="text;strokeColor=none;fillColor=none;align=left;verticalAlign=top;spacingLeft=4;spacingRight=4;overflow=hidden;rotatable=0;points=[[0,0.5],[1,0.5]];portConstraint=eastwest;whiteSpace=wrap;html=1;" vertex="1" parent="aGdu7o1ka7Lb1KKvzhYT-73">
          <mxGeometry y="26" width="240" height="26" as="geometry" />
        </mxCell>
        <mxCell id="aGdu7o1ka7Lb1KKvzhYT-75" value="+&amp;nbsp;senderId" style="text;strokeColor=none;fillColor=none;align=left;verticalAlign=top;spacingLeft=4;spacingRight=4;overflow=hidden;rotatable=0;points=[[0,0.5],[1,0.5]];portConstraint=eastwest;whiteSpace=wrap;html=1;" vertex="1" parent="aGdu7o1ka7Lb1KKvzhYT-73">
          <mxGeometry y="52" width="240" height="26" as="geometry" />
        </mxCell>
        <mxCell id="aGdu7o1ka7Lb1KKvzhYT-78" value="+&amp;nbsp;receiverId&amp;nbsp;" style="text;strokeColor=none;fillColor=none;align=left;verticalAlign=top;spacingLeft=4;spacingRight=4;overflow=hidden;rotatable=0;points=[[0,0.5],[1,0.5]];portConstraint=eastwest;whiteSpace=wrap;html=1;" vertex="1" parent="aGdu7o1ka7Lb1KKvzhYT-73">
          <mxGeometry y="78" width="240" height="26" as="geometry" />
        </mxCell>
        <mxCell id="aGdu7o1ka7Lb1KKvzhYT-79" value="+&amp;nbsp;content" style="text;strokeColor=none;fillColor=none;align=left;verticalAlign=top;spacingLeft=4;spacingRight=4;overflow=hidden;rotatable=0;points=[[0,0.5],[1,0.5]];portConstraint=eastwest;whiteSpace=wrap;html=1;" vertex="1" parent="aGdu7o1ka7Lb1KKvzhYT-73">
          <mxGeometry y="104" width="240" height="26" as="geometry" />
        </mxCell>
        <mxCell id="aGdu7o1ka7Lb1KKvzhYT-80" value="+ isRead" style="text;strokeColor=none;fillColor=none;align=left;verticalAlign=top;spacingLeft=4;spacingRight=4;overflow=hidden;rotatable=0;points=[[0,0.5],[1,0.5]];portConstraint=eastwest;whiteSpace=wrap;html=1;" vertex="1" parent="aGdu7o1ka7Lb1KKvzhYT-73">
          <mxGeometry y="130" width="240" height="26" as="geometry" />
        </mxCell>
        <mxCell id="aGdu7o1ka7Lb1KKvzhYT-76" value="" style="endArrow=ERone;html=1;rounded=0;entryX=0;entryY=0.5;entryDx=0;entryDy=0;exitX=1;exitY=0.5;exitDx=0;exitDy=0;endFill=0;startArrow=ERoneToMany;startFill=0;" edge="1" parent="WIyWlLk6GJQsqaUBKTNV-1" source="aGdu7o1ka7Lb1KKvzhYT-74" target="aGdu7o1ka7Lb1KKvzhYT-70">
          <mxGeometry width="50" height="50" relative="1" as="geometry">
            <mxPoint x="350" y="400" as="sourcePoint" />
            <mxPoint x="514" y="330" as="targetPoint" />
          </mxGeometry>
        </mxCell>
        <mxCell id="aGdu7o1ka7Lb1KKvzhYT-77" value="" style="endArrow=ERone;html=1;rounded=0;entryX=0;entryY=0.5;entryDx=0;entryDy=0;exitX=0.659;exitY=0.012;exitDx=0;exitDy=0;endFill=0;startArrow=ERoneToMany;startFill=0;exitPerimeter=0;" edge="1" parent="WIyWlLk6GJQsqaUBKTNV-1" source="aGdu7o1ka7Lb1KKvzhYT-73" target="aGdu7o1ka7Lb1KKvzhYT-12">
          <mxGeometry width="50" height="50" relative="1" as="geometry">
            <mxPoint x="390" y="360" as="sourcePoint" />
            <mxPoint x="470" y="360" as="targetPoint" />
          </mxGeometry>
        </mxCell>
        <mxCell id="aGdu7o1ka7Lb1KKvzhYT-84" value="message_attachment" style="swimlane;fontStyle=0;childLayout=stackLayout;horizontal=1;startSize=26;fillColor=none;horizontalStack=0;resizeParent=1;resizeParentMax=0;resizeLast=0;collapsible=1;marginBottom=0;whiteSpace=wrap;html=1;" vertex="1" parent="WIyWlLk6GJQsqaUBKTNV-1">
          <mxGeometry x="-260" y="400" width="240" height="156" as="geometry" />
        </mxCell>
        <mxCell id="aGdu7o1ka7Lb1KKvzhYT-85" value="+ messageId" style="text;strokeColor=none;fillColor=none;align=left;verticalAlign=top;spacingLeft=4;spacingRight=4;overflow=hidden;rotatable=0;points=[[0,0.5],[1,0.5]];portConstraint=eastwest;whiteSpace=wrap;html=1;" vertex="1" parent="aGdu7o1ka7Lb1KKvzhYT-84">
          <mxGeometry y="26" width="240" height="26" as="geometry" />
        </mxCell>
        <mxCell id="aGdu7o1ka7Lb1KKvzhYT-86" value="+&amp;nbsp;fileUrl&amp;nbsp;" style="text;strokeColor=none;fillColor=none;align=left;verticalAlign=top;spacingLeft=4;spacingRight=4;overflow=hidden;rotatable=0;points=[[0,0.5],[1,0.5]];portConstraint=eastwest;whiteSpace=wrap;html=1;" vertex="1" parent="aGdu7o1ka7Lb1KKvzhYT-84">
          <mxGeometry y="52" width="240" height="26" as="geometry" />
        </mxCell>
        <mxCell id="aGdu7o1ka7Lb1KKvzhYT-87" value="+&amp;nbsp;fileType&amp;nbsp;" style="text;strokeColor=none;fillColor=none;align=left;verticalAlign=top;spacingLeft=4;spacingRight=4;overflow=hidden;rotatable=0;points=[[0,0.5],[1,0.5]];portConstraint=eastwest;whiteSpace=wrap;html=1;" vertex="1" parent="aGdu7o1ka7Lb1KKvzhYT-84">
          <mxGeometry y="78" width="240" height="26" as="geometry" />
        </mxCell>
        <mxCell id="aGdu7o1ka7Lb1KKvzhYT-88" value="+&amp;nbsp;content" style="text;strokeColor=none;fillColor=none;align=left;verticalAlign=top;spacingLeft=4;spacingRight=4;overflow=hidden;rotatable=0;points=[[0,0.5],[1,0.5]];portConstraint=eastwest;whiteSpace=wrap;html=1;" vertex="1" parent="aGdu7o1ka7Lb1KKvzhYT-84">
          <mxGeometry y="104" width="240" height="26" as="geometry" />
        </mxCell>
        <mxCell id="aGdu7o1ka7Lb1KKvzhYT-89" value="+ isRead" style="text;strokeColor=none;fillColor=none;align=left;verticalAlign=top;spacingLeft=4;spacingRight=4;overflow=hidden;rotatable=0;points=[[0,0.5],[1,0.5]];portConstraint=eastwest;whiteSpace=wrap;html=1;" vertex="1" parent="aGdu7o1ka7Lb1KKvzhYT-84">
          <mxGeometry y="130" width="240" height="26" as="geometry" />
        </mxCell>
        <mxCell id="aGdu7o1ka7Lb1KKvzhYT-90" value="" style="endArrow=ERone;html=1;rounded=0;exitX=1;exitY=0.5;exitDx=0;exitDy=0;endFill=0;startArrow=ERoneToMany;startFill=0;" edge="1" parent="WIyWlLk6GJQsqaUBKTNV-1" source="aGdu7o1ka7Lb1KKvzhYT-86" target="aGdu7o1ka7Lb1KKvzhYT-75">
          <mxGeometry width="50" height="50" relative="1" as="geometry">
            <mxPoint x="173" y="280" as="sourcePoint" />
            <mxPoint x="170" y="340" as="targetPoint" />
          </mxGeometry>
        </mxCell>
      </root>
    </mxGraphModel>
  </diagram>
</mxfile>
